<svg width="190" height="288" viewBox="0 0 190 288" fill="none" xmlns="http://www.w3.org/2000/svg">
<path d="M151.973 68.7668V112.613L114.086 90.9029L151.973 68.7668Z" fill="#02D4D8"/>
<path d="M151.973 112.613L114.086 134.324V90.903L151.973 112.613Z" fill="#0C78A3"/>
<path d="M151.976 112.613L151.973 156.46L114.086 134.324L151.976 112.613Z" fill="#0C78A3"/>
<path d="M190.285 134.324L151.973 156.46L151.973 112.613L190.285 134.324Z" fill="#01BBBE"/>
<path d="M190.285 90.9031V134.324L151.973 112.614L190.285 90.9031Z" fill="#01BBBE"/>
<path d="M176.368 0.655644V13.3567L176.36 13.3621L165.359 7.01038L176.368 0.655644Z" fill="#02D4D8"/>
<path d="M190.285 46.8435L151.973 68.7668V24.9202L190.285 46.8435Z" fill="#02D4D8"/>
<path d="M151.973 200.317V244.153L114.086 222.028L151.973 200.317Z" fill="#A5161C"/>
<path d="M151.973 244.153L114.086 265.864V222.017L151.973 244.153Z" fill="#EF3239"/>
<path d="M151.973 244.153V288L114.086 265.864L151.973 244.153Z" fill="#01C3C7"/>
<path d="M190.285 265.864L151.973 288L151.973 244.153L190.285 265.864Z" fill="#01C3C7"/>
<path d="M190.285 265.864V222.017L151.973 244.153L190.285 265.864Z" fill="#0C78A3"/>
<path d="M190.285 222.017L151.973 244.153V200.307L190.285 222.017Z" fill="#0C78A3"/>
<path d="M190.285 134.324V178.171L151.973 156.46L190.285 134.324Z" fill="#EF4D29"/>
<path d="M190.285 178.171L151.973 200.307L151.973 156.46L190.285 178.171Z" fill="#EF4D29"/>
<path d="M190.285 178.171V222.017L151.973 200.307L190.285 178.171Z" fill="#01C3C7"/>
<path d="M151.973 156.46V200.307L114.086 178.171L151.973 156.46Z" fill="#EF4D29"/>
<path d="M75.7737 68.7668V112.613L38.3125 90.9029L75.7737 68.7668Z" fill="#FBCB86"/>
<path d="M114.086 134.324L75.7734 156.46V112.613L114.086 134.324Z" fill="#F97211"/>
<path d="M50.1432 134.459L32.4414 144.679V124.249L32.4567 124.243L50.1432 134.459Z" fill="#F97211"/>
<path d="M49.8081 72.1724L37.8887 78.9835L37.8887 65.3613L49.8081 72.1724Z" fill="#FBCB86"/>
<path d="M114.086 90.9029L114.086 134.324L75.7734 112.613L114.086 90.9029Z" fill="#F97211"/>
<path d="M114.086 90.903L75.7734 112.613V68.7668L114.086 90.903Z" fill="#F7972A"/>
<path d="M75.7737 200.307V244.153L38.3125 222.017L75.7737 200.307Z" fill="#F36246"/>
<path d="M114.086 265.864L75.7734 288L75.7734 244.153L114.086 265.864Z" fill="#EF3239"/>
<path d="M38.0566 265.877L0 288V244.153L38.0566 265.877Z" fill="#EF3239"/>
<path d="M114.086 265.864V222.017L75.7734 244.153L114.086 265.864Z" fill="#EF3239"/>
<path d="M114.086 222.017L75.7734 244.153V200.307L114.086 222.017Z" fill="#EF3239"/>
<path d="M114.086 134.324V178.171L75.7734 156.46L114.086 134.324Z" fill="#F7972A"/>
<path d="M114.086 178.171L75.7734 200.307V156.46L114.086 178.171Z" fill="#F7972A"/>
<path d="M114.086 178.171V222.017L75.7734 200.307L114.086 178.171Z" fill="#F97211"/>
<path d="M151.973 200.337L114.086 222.017V178.171L151.973 200.337Z" fill="#A5161C"/>
<path d="M152.093 156.339L114.086 178.171V134.324L152.093 156.339Z" fill="#F7972A"/>
</svg>
