<svg width="179" height="198" viewBox="0 0 179 198" fill="none" xmlns="http://www.w3.org/2000/svg">
<path d="M37.8887 153.453V109.404L75.7756 131.54L37.8887 153.453Z" fill="#01C3C7"/>
<path d="M37.8887 109.404L75.7756 87.6933V131.54L37.8887 109.404Z" fill="#0C78A3"/>
<path d="M50.6582 156.869L63.4142 149.419L63.4295 149.428V164.318L50.6582 156.869Z" fill="#0C78A3"/>
<path d="M37.8887 109.404V65.5571L75.7756 87.6933L37.8887 109.404Z" fill="#0C78A3"/>
<path d="M0 87.4854L37.8869 65.5571V109.404L0 87.4854Z" fill="#01BBBE"/>
<path d="M0 175.275V175.208L37.9142 153.324L37.9425 153.343V197.178L0 175.275Z" fill="#01C3C7"/>
<path d="M0 87.6137V43.8466L37.8844 65.5571L0 87.6137Z" fill="#EF3239"/>
<path d="M0 43.8466L37.8869 22.1362V65.5571L0 43.8466Z" fill="#EF3239"/>
<path d="M37.8887 65.5571V22.1362L75.7756 43.8466L37.8887 65.5571Z" fill="#EF3239"/>
<path d="M113.66 65.5571V21.7105L151.547 43.8466L113.66 65.5571Z" fill="#F7972A"/>
<path d="M163.039 52.7863V34.9147L163.054 34.907L178.364 43.8447L163.039 52.7863Z" fill="#F7972A"/>
<path d="M113.66 153.25V109.404L151.547 131.54L113.66 153.25Z" fill="#FBCB86"/>
<path d="M75.6133 87.6415L113.661 65.5571V109.404L75.6133 87.6415Z" fill="#F46B34"/>
<path d="M75.7734 131.54V87.6933L113.66 109.404L75.7734 131.54Z" fill="#F46B34"/>
<path d="M75.7734 131.54L113.66 109.404V153.25L75.7734 131.54Z" fill="#F7972A"/>
<path d="M75.7734 43.8466V87.6933L113.66 65.5571L75.7734 43.8466Z" fill="#F7972A"/>
<path d="M75.7734 43.8466L113.66 21.7105V65.5571L75.7734 43.8466Z" fill="#F7972A"/>
<path d="M75.7734 43.8466V-9.84788e-06L113.772 21.8747L75.7734 43.8466Z" fill="#F97211"/>
<path d="M37.8887 22.1362L75.7756 -9.84788e-06V43.8466L37.8887 22.1362Z" fill="#A5161C"/>
<path d="M37.8887 65.5571L75.7756 43.8466V87.6933L37.8887 65.5571Z" fill="#F7972A"/>
</svg>
