<svg width="20" height="20" viewBox="0 0 20 20" fill="none" xmlns="http://www.w3.org/2000/svg">
<path d="M2.62525 7.55992H2C2 7.93532 2.27993 8.23966 2.62525 8.23966V7.55992ZM17.3747 7.55992V8.23966C17.7201 8.23966 18 7.93532 18 7.55992H17.3747ZM3.25051 9.65142C3.25051 9.27601 2.97057 8.97168 2.62525 8.97168C2.27993 8.97168 2 9.27601 2 9.65142H3.25051ZM18 9.65142C18 9.27601 17.7201 8.97168 17.3747 8.97168C17.0295 8.97168 16.7495 9.27601 16.7495 9.65142H18ZM5.20642 5.11982C5.20642 5.49524 5.48636 5.79956 5.83167 5.79956C6.17699 5.79956 6.45692 5.49524 6.45692 5.11982H5.20642ZM6.45692 2.67974C6.45692 2.30433 6.17699 2 5.83167 2C5.48636 2 5.20642 2.30433 5.20642 2.67974H6.45692ZM14.7936 2.67974C14.7936 2.30433 14.5137 2 14.1684 2C13.823 2 13.5431 2.30433 13.5431 2.67974H14.7936ZM13.5431 5.11982C13.5431 5.49524 13.823 5.79956 14.1684 5.79956C14.5137 5.79956 14.7936 5.49524 14.7936 5.11982H13.5431ZM5.83167 10.366C5.48636 10.366 5.20642 10.6703 5.20642 11.0458C5.20642 11.4212 5.48636 11.7255 5.83167 11.7255V10.366ZM14.1684 11.7255C14.5137 11.7255 14.7936 11.4212 14.7936 11.0458C14.7936 10.6703 14.5137 10.366 14.1684 10.366V11.7255ZM5.83167 13.1547C5.48636 13.1547 5.20642 13.459 5.20642 13.8345C5.20642 14.2099 5.48636 14.5142 5.83167 14.5142V13.1547ZM10.3207 14.5142C10.666 14.5142 10.9459 14.2099 10.9459 13.8345C10.9459 13.459 10.666 13.1547 10.3207 13.1547V14.5142ZM3.58718 18H16.4128V16.6405H3.58718V18ZM16.4128 3.39433H3.58718V4.75381H16.4128V3.39433ZM2 5.11982V7.55992H3.25051V5.11982H2ZM18 7.55992V5.11982H16.7495V7.55992H18ZM2.62525 8.23966H17.3747V6.88018H2.62525V8.23966ZM2 9.65142V16.2745H3.25051V9.65142H2ZM18 16.2745V9.65142H16.7495V16.2745H18ZM6.45692 5.11982V2.67974H5.20642V5.11982H6.45692ZM13.5431 2.67974V5.11982H14.7936V2.67974H13.5431ZM5.83167 11.7255H14.1684V10.366H5.83167V11.7255ZM5.83167 14.5142H10.3207V13.1547H5.83167V14.5142ZM16.4128 4.75381C16.5988 4.75381 16.7495 4.91768 16.7495 5.11982H18C18 4.16686 17.2894 3.39433 16.4128 3.39433V4.75381ZM16.4128 18C17.2894 18 18 17.2275 18 16.2745H16.7495C16.7495 16.4767 16.5988 16.6405 16.4128 16.6405V18ZM3.58718 16.6405C3.40124 16.6405 3.25051 16.4767 3.25051 16.2745H2C2 17.2275 2.71061 18 3.58718 18V16.6405ZM3.58718 3.39433C2.71061 3.39433 2 4.16686 2 5.11982H3.25051C3.25051 4.91768 3.40124 4.75381 3.58718 4.75381V3.39433Z" fill="#44566C"/>
</svg>
