<svg width="18" height="18" viewBox="0 0 18 18" fill="none" xmlns="http://www.w3.org/2000/svg">
<path fill-rule="evenodd" clip-rule="evenodd" d="M17.704 1.70711C18.0945 1.31658 18.0945 0.683417 17.704 0.292893C17.3134 -0.0976311 16.6803 -0.0976311 16.2898 0.292893L8.99843 7.58422L1.70711 0.292893C1.31658 -0.0976311 0.683417 -0.0976311 0.292893 0.292893C-0.0976311 0.683417 -0.0976311 1.31658 0.292893 1.70711L7.58422 8.99843L0.292893 16.2898C-0.0976311 16.6803 -0.0976311 17.3134 0.292893 17.704C0.683417 18.0945 1.31658 18.0945 1.70711 17.704L8.99843 10.4126L16.2898 17.704C16.6803 18.0945 17.3134 18.0945 17.704 17.704C18.0945 17.3134 18.0945 16.6803 17.704 16.2898L10.4126 8.99843L17.704 1.70711Z" fill="white"/>
</svg>
