<svg width="40" height="40" viewBox="0 0 40 40" fill="none" xmlns="http://www.w3.org/2000/svg">
<path opacity="0.08" fill-rule="evenodd" clip-rule="evenodd" d="M3 5C1.89543 5 1 5.89543 1 7V32C1 33.1046 1.89543 34 3 34H37C38.1046 34 39 33.1046 39 32V7C39 5.89543 38.1046 5 37 5H3ZM36 13H4V32H36V13Z" fill="#304CFD"/>
<path d="M37.6172 4.375H2.38281C1.06903 4.375 0 5.44403 0 6.75781V33.2422C0 34.556 1.06903 35.625 2.38281 35.625H37.6172C38.931 35.625 40 34.556 40 33.2422V6.75781C40 5.44403 38.931 4.375 37.6172 4.375ZM38.4375 33.2422C38.4375 33.6945 38.0695 34.0625 37.6172 34.0625H2.38281C1.93054 34.0625 1.5625 33.6945 1.5625 33.2422V6.75781C1.5625 6.30554 1.93054 5.9375 2.38281 5.9375H37.6172C38.0695 5.9375 38.4375 6.30554 38.4375 6.75781V33.2422Z" fill="#304CFD"/>
<path d="M14.9219 9.7915H35.0781C35.5096 9.7915 35.8594 9.44177 35.8594 9.01025C35.8594 8.57904 35.5096 8.229 35.0781 8.229H14.9219C14.4904 8.229 14.1406 8.57904 14.1406 9.01025C14.1406 9.44177 14.4904 9.7915 14.9219 9.7915Z" fill="#304CFD"/>
<path d="M3.99207 9.30934C4.0116 9.35634 4.03571 9.4015 4.06378 9.44362C4.09186 9.48665 4.12482 9.52663 4.16083 9.56233C4.30609 9.70851 4.50751 9.79152 4.71289 9.79152C4.76447 9.79152 4.81543 9.78664 4.86609 9.77657C4.91614 9.76649 4.96527 9.75154 5.01227 9.73201C5.05927 9.71248 5.10443 9.68837 5.14655 9.66029C5.18958 9.6313 5.22955 9.59834 5.26526 9.56264C5.30219 9.52663 5.33423 9.48665 5.36292 9.44392C5.3913 9.4015 5.41541 9.35634 5.43494 9.30934C5.45447 9.26173 5.46942 9.2126 5.47949 9.16316C5.48956 9.1125 5.49414 9.06093 5.49414 9.01027C5.49414 8.9593 5.48956 8.90773 5.47949 8.85799C5.46942 8.80794 5.45447 8.7585 5.43494 8.71181C5.41541 8.6642 5.3913 8.61873 5.36292 8.57661C5.33423 8.53358 5.30219 8.49391 5.26526 8.4579C5.22955 8.42189 5.18958 8.38924 5.14655 8.36086C5.10443 8.33278 5.05927 8.30867 5.01227 8.28914C4.96527 8.26961 4.91614 8.25465 4.86609 8.24458C4.76538 8.22414 4.66162 8.22414 4.56061 8.24458C4.51056 8.25465 4.46143 8.26961 4.41473 8.28914C4.36682 8.30867 4.32166 8.33278 4.27954 8.36086C4.23651 8.38924 4.19653 8.42189 4.16083 8.4579C4.12482 8.49391 4.09186 8.53358 4.06378 8.57661C4.03571 8.61873 4.0116 8.6642 3.99207 8.71181C3.97253 8.7585 3.95758 8.80794 3.94751 8.85799C3.93713 8.90773 3.93164 8.9593 3.93164 9.01027C3.93164 9.06093 3.93713 9.1125 3.94751 9.16316C3.95758 9.2126 3.97253 9.26173 3.99207 9.30934Z" fill="#304CFD"/>
<path d="M7.11707 9.30934C7.1366 9.35634 7.16071 9.4015 7.18878 9.44362C7.21686 9.48665 7.24982 9.52663 7.28583 9.56233C7.43109 9.70851 7.63251 9.79152 7.83789 9.79152C7.88947 9.79152 7.94043 9.78664 7.99109 9.77657C8.04114 9.76649 8.09027 9.75154 8.13727 9.73201C8.18427 9.71248 8.22943 9.68837 8.27155 9.66029C8.31458 9.6313 8.35455 9.59834 8.39117 9.56264C8.42719 9.52663 8.45923 9.48665 8.48792 9.44392C8.5163 9.4015 8.54041 9.35634 8.55994 9.30934C8.57947 9.26173 8.59442 9.2126 8.60449 9.16316C8.61456 9.1125 8.61914 9.06093 8.61914 9.01027C8.61914 8.9593 8.61456 8.90773 8.60449 8.85799C8.59442 8.80794 8.57947 8.7585 8.55994 8.71181C8.54041 8.6642 8.5163 8.61873 8.48792 8.57661C8.45923 8.53358 8.42719 8.49391 8.39117 8.4579C8.35455 8.42189 8.31458 8.38924 8.27155 8.36086C8.22943 8.33278 8.18427 8.30867 8.13727 8.28914C8.09027 8.26961 8.04114 8.25465 7.99109 8.24458C7.89038 8.22414 7.78662 8.22414 7.68561 8.24458C7.63556 8.25465 7.58643 8.26961 7.53973 8.28914C7.49182 8.30867 7.44666 8.33278 7.40454 8.36086C7.36151 8.38924 7.32153 8.42189 7.28583 8.4579C7.24982 8.49391 7.21686 8.53358 7.18878 8.57661C7.16071 8.61873 7.1366 8.6642 7.11707 8.71181C7.09753 8.7585 7.08258 8.80794 7.07251 8.85799C7.06213 8.90773 7.05664 8.9593 7.05664 9.01027C7.05664 9.06093 7.06213 9.1125 7.07251 9.16316C7.08258 9.2126 7.09753 9.26173 7.11707 9.30934Z" fill="#304CFD"/>
<path d="M10.2421 9.30934C10.2616 9.35634 10.2857 9.4015 10.3138 9.44362C10.3419 9.48665 10.3748 9.52663 10.4108 9.56233C10.4465 9.59834 10.4865 9.6313 10.5295 9.65999C10.5717 9.68837 10.6168 9.71248 10.6647 9.73201C10.7114 9.75154 10.7606 9.76649 10.8106 9.77657C10.8607 9.78664 10.9122 9.79121 10.9629 9.79121C11.0145 9.79121 11.0654 9.78664 11.1161 9.77657C11.1661 9.76649 11.2153 9.75154 11.2623 9.73201C11.3093 9.71248 11.3544 9.68837 11.3975 9.65999C11.4396 9.6313 11.4796 9.59834 11.5162 9.56233C11.5522 9.52663 11.5842 9.48665 11.6129 9.44362C11.6413 9.4015 11.6654 9.35634 11.6849 9.30934C11.7045 9.26173 11.7194 9.2126 11.7295 9.16316C11.7396 9.1125 11.7441 9.06093 11.7441 9.00996C11.7441 8.9593 11.7396 8.90773 11.7295 8.85768C11.7194 8.80763 11.7045 8.7585 11.6849 8.71181C11.6654 8.66389 11.6413 8.61873 11.6129 8.57661C11.5842 8.53358 11.5522 8.49361 11.5162 8.4579C11.4796 8.42189 11.4396 8.38893 11.3975 8.36086C11.3544 8.33278 11.3093 8.30867 11.2623 8.28914C11.2153 8.26961 11.1661 8.25465 11.1161 8.24458C11.0154 8.22414 10.9116 8.22414 10.8106 8.24458C10.7606 8.25465 10.7114 8.26961 10.6647 8.28914C10.6168 8.30867 10.5717 8.33278 10.5295 8.36086C10.4865 8.38893 10.4465 8.42189 10.4108 8.4579C10.3748 8.49361 10.3419 8.53358 10.3138 8.57661C10.2857 8.61873 10.2616 8.66389 10.2421 8.71181C10.2225 8.7585 10.2076 8.80763 10.1975 8.85768C10.1871 8.90773 10.1816 8.9593 10.1816 9.00996C10.1816 9.06093 10.1871 9.1125 10.1975 9.16316C10.2076 9.2126 10.2225 9.26173 10.2421 9.30934Z" fill="#304CFD"/>
<path d="M22.715 17.739C22.3436 17.5193 21.8644 17.6426 21.6447 18.014L17.0094 25.8524C16.7897 26.2238 16.9126 26.7029 17.284 26.9224C17.4089 26.9962 17.5459 27.0316 17.6811 27.0316C17.9481 27.0316 18.2084 26.8943 18.3543 26.6477L22.9896 18.8093C23.2093 18.4379 23.0864 17.9588 22.715 17.739Z" fill="#304CFD"/>
<path d="M12.9772 20.0351V19.2462C12.9772 18.8095 13.3325 18.454 13.7692 18.454H13.7802C14.2117 18.454 14.5614 18.1042 14.5614 17.6727C14.5614 17.2415 14.2117 16.8915 13.7802 16.8915H13.7692C12.471 16.8915 11.4147 17.948 11.4147 19.2462V20.0351C11.4147 20.3192 11.2982 20.5963 11.0949 20.795L10.0826 21.7853C9.93342 21.9312 9.84888 22.1307 9.84766 22.3395C9.84675 22.5482 9.92915 22.7487 10.0769 22.8964L11.1083 23.9276C11.3073 24.1263 11.4178 24.3906 11.4199 24.6719L11.4254 25.4907C11.4346 26.7801 12.4908 27.8293 13.7802 27.8293C14.2117 27.8293 14.5614 27.4792 14.5614 27.048C14.5614 26.6165 14.2117 26.2668 13.7802 26.2668C13.3462 26.2668 12.991 25.9137 12.9879 25.48L12.9824 24.6613C12.9775 23.9664 12.7041 23.3133 12.2131 22.8226L11.7401 22.3499L12.1878 21.9119C12.6895 21.4209 12.9772 20.737 12.9772 20.0351Z" fill="#304CFD"/>
<path d="M27.0236 24.6857V25.4746C27.0236 25.9113 26.6684 26.2668 26.2317 26.2668H26.2207C25.7892 26.2668 25.4395 26.6166 25.4395 27.0481C25.4395 27.4793 25.7892 27.8293 26.2207 27.8293H26.2317C27.5299 27.8293 28.5861 26.7728 28.5861 25.4746V24.6857C28.5861 24.4016 28.7027 24.1245 28.9059 23.9258L29.9182 22.9355C30.0674 22.7897 30.152 22.5901 30.1529 22.3813C30.1541 22.1726 30.0717 21.9721 29.924 21.8244L28.8925 20.7932C28.6935 20.5945 28.5828 20.33 28.5809 20.0489L28.5751 19.2301C28.5663 17.9407 27.5101 16.8918 26.2207 16.8918C25.7892 16.8918 25.4395 17.2416 25.4395 17.6731C25.4395 18.1043 25.7892 18.4543 26.2207 18.4543C26.6544 18.4543 27.0099 18.8071 27.0126 19.2408L27.0184 20.0596C27.0233 20.7542 27.2964 21.4072 27.7878 21.8983L28.2608 22.371L27.8131 22.8089C27.3114 23.2996 27.0236 23.9838 27.0236 24.6857Z" fill="#304CFD"/>
<path d="M36.0437 12.1353H3.95508C3.52356 12.1353 3.17383 12.4853 3.17383 12.9165V31.6665C3.17383 32.098 3.52356 32.4478 3.95508 32.4478H13.2547C13.6862 32.4478 14.0359 32.098 14.0359 31.6665C14.0359 31.2353 13.6862 30.8853 13.2547 30.8853H4.73633V13.6978H35.2625V30.8853H19.5306C19.0991 30.8853 18.7494 31.2353 18.7494 31.6665C18.7494 32.098 19.0991 32.4478 19.5306 32.4478H36.0437C36.4752 32.4478 36.825 32.098 36.825 31.6665V12.9165C36.825 12.4853 36.4752 12.1353 36.0437 12.1353Z" fill="#304CFD"/>
</svg>
