<svg width="16" height="16" viewBox="0 0 16 16" fill="none" xmlns="http://www.w3.org/2000/svg">
<path d="M1.34639 12.5723C1.27276 12.2042 0.914666 11.9655 0.546552 12.0391C0.17844 12.1127 -0.0602918 12.4709 0.013331 12.839L1.34639 12.5723ZM1.20272 15.32L0.536197 15.4533C0.599741 15.771 0.878714 15.9997 1.20272 15.9997V15.32ZM14.7973 15.32V15.9997C15.1212 15.9997 15.4002 15.771 15.4638 15.4533L14.7973 15.32ZM15.9867 12.839C16.0603 12.4709 15.8215 12.1127 15.4535 12.0391C15.0854 11.9655 14.7272 12.2042 14.6536 12.5723L15.9867 12.839ZM7.99999 12.1828L7.56484 12.7049C7.81691 12.915 8.18306 12.915 8.43514 12.7049L7.99999 12.1828ZM8.67971 0.679726C8.67971 0.304324 8.3754 0 7.99999 0C7.62458 0 7.32026 0.304324 7.32026 0.679726H8.67971ZM5.29794 9.04628C5.00955 8.80595 4.58093 8.84492 4.34061 9.13331C4.10028 9.4217 4.13925 9.85031 4.42764 10.0906L5.29794 9.04628ZM11.5723 10.0906C11.8607 9.85031 11.8997 9.4217 11.6593 9.13331C11.419 8.84492 10.9905 8.80595 10.7021 9.04628L11.5723 10.0906ZM0.013331 12.839L0.536197 15.4533L1.86925 15.1867L1.34639 12.5723L0.013331 12.839ZM1.20272 15.9997H14.7973V14.6403H1.20272V15.9997ZM15.4638 15.4533L15.9867 12.839L14.6536 12.5723L14.1307 15.1867L15.4638 15.4533ZM8.67971 12.1828V0.679726H7.32026V12.1828H8.67971ZM8.43514 11.6607L5.29794 9.04628L4.42764 10.0906L7.56484 12.7049L8.43514 11.6607ZM8.43514 12.7049L11.5723 10.0906L10.7021 9.04628L7.56484 11.6607L8.43514 12.7049Z" fill="white"/>
</svg>
