<svg width="40" height="40" viewBox="0 0 40 40" fill="none" xmlns="http://www.w3.org/2000/svg">
<path opacity="0.05" fill-rule="evenodd" clip-rule="evenodd" d="M1 9.96661L20 1.96661L39 9.96661L20 17.9666L1 9.96661ZM20 10.9666C21.1046 10.9666 22 10.5189 22 9.96661C22 9.41433 21.1046 8.96661 20 8.96661C18.8954 8.96661 18 9.41433 18 9.96661C18 10.5189 18.8954 10.9666 20 10.9666Z" fill="#304CFD"/>
<path opacity="0.05" d="M7.5 23.9666V15.4666L20 20.4666L32.5 15.4666V23.9666C30.5575 28.8228 23.5 29.9666 20 29.9666C16.5 29.9666 10.6889 28.4311 7.5 23.9666Z" fill="#304CFD"/>
<path d="M28.1609 34.6531C27.8036 34.5624 27.4416 34.7811 27.3529 35.1378L26.6863 37.8045C26.5963 38.1624 26.8143 38.5238 27.1716 38.6131C27.2256 38.6271 27.2803 38.6331 27.3336 38.6331C27.6323 38.6331 27.9036 38.4311 27.9797 38.1285L28.6463 35.4618C28.7356 35.1045 28.5182 34.7425 28.1609 34.6531Z" fill="#304CFD"/>
<path d="M20 21.2999C20.0866 21.2999 20.1734 21.2832 20.2547 21.2492L27.588 18.2146C27.928 18.0739 28.0894 17.6838 27.9487 17.3439C27.808 17.0031 27.4167 16.8431 27.0774 16.9825L20 19.9118L1.33336 12.1878V11.9665C1.33336 11.5985 1.03469 11.2999 0.666719 11.2999C0.29875 11.2999 0 11.5985 0 11.9665V12.6331C0 12.9031 0.162656 13.1465 0.412031 13.2492L19.7454 21.2492C19.8266 21.2831 19.9134 21.2999 20 21.2999Z" fill="#304CFD"/>
<path d="M27.9299 28.1298C27.7673 27.7998 27.3686 27.6638 27.0373 27.8272C25.7712 28.4532 23.6566 29.1812 20.6659 29.2805V23.2998C20.6659 22.9319 20.3673 22.6332 19.9993 22.6332C19.6313 22.6332 19.3327 22.9319 19.3327 23.2998V29.2745C11.0547 29.0105 8.38336 23.9959 7.9993 23.1612V18.6332C7.9993 18.2652 7.70062 17.9666 7.33266 17.9666C6.96469 17.9666 6.66602 18.2652 6.66602 18.6332V23.2998C6.66602 23.3845 6.68203 23.4685 6.71336 23.5478C6.82938 23.8365 9.66672 30.6331 19.9994 30.6331C23.6107 30.6331 26.1414 29.7571 27.628 29.0224C27.9585 28.8591 28.0939 28.4598 27.9299 28.1298Z" fill="#304CFD"/>
<path d="M30.0006 35.2999C29.632 35.2999 29.334 35.5985 29.334 35.9665V37.9665C29.334 38.3345 29.632 38.6331 30.0006 38.6331C30.3693 38.6331 30.6673 38.3345 30.6673 37.9665V35.9665C30.6673 35.5985 30.3693 35.2999 30.0006 35.2999Z" fill="#304CFD"/>
<path d="M39.3334 11.2999C38.9647 11.2999 38.6667 11.5985 38.6667 11.9665V12.1865L30.6667 15.4792V14.2745L39.588 10.5824C39.8373 10.4798 40.0001 10.2364 40.0001 9.96643C40.0001 9.69643 39.8374 9.45378 39.5887 9.35042L20.2547 1.3505C20.0913 1.28315 19.9087 1.28315 19.7454 1.3505L0.412031 9.3505C0.162656 9.45385 0 9.69651 0 9.96651C0 10.2365 0.162656 10.4799 0.412031 10.5825L19.7454 18.5825C19.8267 18.6165 19.9134 18.6332 20.0001 18.6332C20.0868 18.6332 20.1734 18.6166 20.2548 18.5825L27.2455 15.6899C27.5862 15.5499 27.7475 15.1599 27.6068 14.8192C27.4661 14.4792 27.0761 14.3185 26.7361 14.4585L20 17.2452L2.41 9.96651L20 2.68784L37.59 9.96651L29.936 13.1339L22.6047 10.3965C22.6434 10.2578 22.6667 10.1152 22.6667 9.96651C22.6667 8.84518 21.4954 7.96651 20.0001 7.96651C18.5048 7.96651 17.3334 8.84518 17.3334 9.96651C17.3334 11.0878 18.5048 11.9665 20.0001 11.9665C20.6674 11.9665 21.2627 11.7845 21.7254 11.4912L29.3334 14.3319V16.4679V16.4686V30.756C28.5594 31.0326 28 31.7653 28 32.6333C28 33.736 28.8973 34.6333 30 34.6333C31.1027 34.6333 32 33.736 32 32.6333C32 31.7653 31.4407 31.0327 30.6666 30.756V26.972C32.5806 25.5273 33.2666 23.6033 33.2966 23.518C33.3206 23.448 33.3333 23.374 33.3333 23.3V18.6334C33.3333 18.2654 33.0353 17.9667 32.6666 17.9667C32.298 17.9667 32 18.2654 32 18.6334V23.1767C31.8847 23.4594 31.484 24.3307 30.6666 25.1907V16.9212L39.5873 13.2499C39.8373 13.1472 40 12.9032 40 12.6332V11.9666C40 11.5985 39.702 11.2999 39.3334 11.2999ZM20 10.6332C19.186 10.6332 18.6666 10.2385 18.6666 9.96651C18.6666 9.69448 19.1859 9.29987 20 9.29987C20.8141 9.29987 21.3334 9.69456 21.3334 9.96651C21.3334 10.2385 20.814 10.6332 20 10.6332ZM30 33.2999C29.632 33.2999 29.3334 33.0006 29.3334 32.6332C29.3334 32.2659 29.632 31.9666 30 31.9666C30.368 31.9666 30.6666 32.2659 30.6666 32.6332C30.6666 33.0005 30.368 33.2999 30 33.2999Z" fill="#304CFD"/>
<path d="M32.6474 35.1378C32.5581 34.7811 32.1953 34.5631 31.8394 34.6531C31.482 34.7424 31.2647 35.1044 31.3541 35.4618L32.0207 38.1284C32.0967 38.4311 32.3681 38.6331 32.6667 38.6331C32.7201 38.6331 32.7747 38.6271 32.8288 38.6131C33.1861 38.5238 33.4034 38.1624 33.3141 37.8044L32.6474 35.1378Z" fill="#304CFD"/>
</svg>
