<svg width="20" height="20" viewBox="0 0 20 20" fill="none" xmlns="http://www.w3.org/2000/svg">
<path d="M3.25051 8.71544C3.25051 8.37013 2.97057 8.09019 2.62525 8.09019C2.27993 8.09019 2 8.37013 2 8.71544H3.25051ZM18 8.71544C18 8.37013 17.7201 8.09019 17.3747 8.09019C17.0295 8.09019 16.7495 8.37013 16.7495 8.71544H18ZM9.51309 10.5539L9.19659 11.0931L9.51309 10.5539ZM4.54911 16.4349H15.4509V15.1844H4.54911V16.4349ZM15.5397 3H4.46031V4.2505H15.5397V3ZM3.21491 7.58213L9.19659 11.0931L9.8296 10.0147L3.84791 6.50367L3.21491 7.58213ZM10.8035 11.0931L16.7852 7.58213L16.1521 6.50367L10.1705 10.0147L10.8035 11.0931ZM2 8.71544V13.8858H3.25051V8.71544H2ZM18 13.8858V8.71544H16.7495V13.8858H18ZM16.7495 5.46031C16.7495 5.88943 16.5222 6.28645 16.1521 6.50367L16.7852 7.58213C17.5378 7.14037 18 6.333 18 5.46031H16.7495ZM9.19659 11.0931C9.69264 11.3843 10.3074 11.3843 10.8035 11.0931L10.1705 10.0147C10.0652 10.0764 9.93482 10.0764 9.8296 10.0147L9.19659 11.0931ZM2 5.46031C2 6.333 2.46228 7.14037 3.21491 7.58213L3.84791 6.50367C3.47783 6.28645 3.25051 5.88943 3.25051 5.46031H2ZM15.5397 4.2505C16.2079 4.2505 16.7495 4.79216 16.7495 5.46031H18C18 4.10152 16.8985 3 15.5397 3V4.2505ZM15.4509 16.4349C16.8588 16.4349 18 15.2936 18 13.8858H16.7495C16.7495 14.603 16.1681 15.1844 15.4509 15.1844V16.4349ZM4.54911 15.1844C3.8319 15.1844 3.25051 14.603 3.25051 13.8858H2C2 15.2936 3.14127 16.4349 4.54911 16.4349V15.1844ZM4.46031 3C3.10152 3 2 4.10152 2 5.46031H3.25051C3.25051 4.79216 3.79216 4.2505 4.46031 4.2505V3Z" fill="#44566C"/>
</svg>
