<svg width="17" height="15" viewBox="0 0 17 15" fill="none" xmlns="http://www.w3.org/2000/svg">
<path d="M4.15089 14.9717H0.905454V4.52758H4.15089V14.9717ZM2.50814 3.24544C1.48309 3.24544 0.820312 2.51922 0.820312 1.62105C0.820312 0.704513 1.50312 0 2.54988 0C3.59663 0 4.2377 0.704513 4.25774 1.62105C4.25774 2.51922 3.59663 3.24544 2.50814 3.24544ZM16.0041 14.9717H12.7586V9.18372C12.7586 7.83646 12.2879 6.9216 11.1142 6.9216C10.2177 6.9216 9.68516 7.54097 9.44977 8.13697C9.36296 8.34899 9.34125 8.64949 9.34125 8.94833V14.9701H6.09415V7.85817C6.09415 6.55432 6.05241 5.46415 6.009 4.52592H8.82873L8.97731 5.97668H9.04242C9.4698 5.29554 10.5166 4.29052 12.2678 4.29052C14.4031 4.29052 16.0041 5.72125 16.0041 8.7964V14.9717Z" fill="#44566C"/>
</svg>
