<svg width="20" height="20" viewBox="0 0 20 20" fill="none" xmlns="http://www.w3.org/2000/svg">
<path d="M11.5511 16.775L12.0919 17.1868L12.0981 17.1788L12.1039 17.1705L11.5511 16.775ZM9.31121 16.775L8.77077 17.1873L8.77136 17.1881L9.31121 16.775ZM10.4314 10.3936V9.71385H10.4312L10.4314 10.3936ZM10.4318 18C11.0789 18 11.6978 17.7045 12.0919 17.1868L11.0103 16.3633C10.8818 16.532 10.6688 16.6405 10.4318 16.6405V18ZM16.8627 8.20486C16.8627 4.7523 13.957 2 10.4314 2V3.35948C13.2584 3.35948 15.5033 5.55414 15.5033 8.20486H16.8627ZM10.4314 2C6.90475 2 4 4.75237 4 8.20486H5.35948C5.35948 5.55408 7.60365 3.35948 10.4314 3.35948V2ZM4 8.20486C4 8.88481 4.22452 9.65484 4.53987 10.4182C4.86038 11.1941 5.30002 12.0223 5.78383 12.8357C6.75182 14.4629 7.92746 16.0819 8.77077 17.1873L9.85164 16.3628C9.02176 15.2749 7.88166 13.703 6.95222 12.1405C6.48732 11.3591 6.08281 10.5927 5.79636 9.8992C5.50474 9.19323 5.35948 8.61906 5.35948 8.20486H4ZM8.77136 17.1881C9.16634 17.7043 9.78437 18 10.4318 18V16.6405C10.1951 16.6405 9.98124 16.5322 9.85104 16.3619L8.77136 17.1881ZM8.7187 8.09581C8.7187 7.22773 9.4592 6.47777 10.4314 6.47777V5.1183C8.76054 5.1183 7.35923 6.4258 7.35923 8.09581H8.7187ZM10.4314 6.47777C11.403 6.47777 12.1436 7.22766 12.1436 8.09581H13.5031C13.5031 6.42587 12.1019 5.1183 10.4314 5.1183V6.47777ZM12.1436 8.09581C12.1436 8.96396 11.403 9.71385 10.4314 9.71385V11.0733C12.1019 11.0733 13.5031 9.76575 13.5031 8.09581H12.1436ZM10.4312 9.71385C9.45927 9.71415 8.7187 8.96441 8.7187 8.09581H7.35923C7.35923 9.76613 8.76047 11.0739 10.4316 11.0733L10.4312 9.71385ZM12.1039 17.1705C12.5259 16.5807 13.0179 15.9533 13.541 15.2671C14.0581 14.5888 14.5964 13.8646 15.0827 13.1133C16.0447 11.6272 16.8627 9.94778 16.8627 8.20486H15.5033C15.5033 9.54358 14.8654 10.9472 13.9414 12.3746C13.4847 13.0803 12.9724 13.7705 12.4599 14.4429C11.9532 15.1076 11.4363 15.7673 10.9983 16.3795L12.1039 17.1705Z" fill="#44566C"/>
</svg>
