<svg width="16" height="13" viewBox="0 0 16 13" fill="none" xmlns="http://www.w3.org/2000/svg">
<path d="M14.2454 3.11522C14.252 3.25212 14.2537 3.38901 14.2537 3.52257C14.2537 7.69623 11.08 12.506 5.27365 12.506C3.49067 12.506 1.83122 11.9851 0.435547 11.0869C0.680958 11.117 0.933047 11.1286 1.18848 11.1286C2.66762 11.1286 4.02823 10.6261 5.10838 9.77805C3.72773 9.75134 2.56244 8.83981 2.1601 7.58771C2.35209 7.62277 2.54909 7.64281 2.75276 7.64281C3.03991 7.64281 3.32038 7.60441 3.58416 7.53262C2.14007 7.24213 1.05158 5.96666 1.05158 4.43743V4.39904C1.47729 4.63443 1.96478 4.77801 2.48231 4.7947C1.63422 4.22708 1.07829 3.26213 1.07829 2.16529C1.07829 1.58766 1.23355 1.04342 1.50567 0.577635C3.06328 2.4875 5.38718 3.74294 8.01157 3.87816C7.95648 3.64611 7.92977 3.40571 7.92977 3.15696C7.92977 1.4157 9.34214 0 11.0867 0C11.9932 0 12.8146 0.383978 13.3906 0.99834C14.1101 0.854766 14.7846 0.59433 15.3939 0.232057C15.1585 0.96829 14.6594 1.58766 14.0066 1.97998C14.646 1.90152 15.2537 1.7329 15.8197 1.48082C15.3973 2.11354 14.8614 2.67114 14.2454 3.11522Z" fill="#44566C"/>
</svg>
