<svg width="14" height="16" viewBox="0 0 14 16" fill="none" xmlns="http://www.w3.org/2000/svg">
<path fill-rule="evenodd" clip-rule="evenodd" d="M2.61381 4.33987C2.61381 1.94303 4.57756 0 6.99999 0C9.42242 0 11.3862 1.94303 11.3862 4.33987C11.3862 6.73671 9.42242 8.67974 6.99999 8.67974C4.57756 8.67974 2.61381 6.73671 2.61381 4.33987ZM6.99999 1.35948C5.33639 1.35948 3.9878 2.69385 3.9878 4.33987C3.9878 5.98589 5.33639 7.32026 6.99999 7.32026C8.66358 7.32026 10.0122 5.98589 10.0122 4.33987C10.0122 2.69385 8.66358 1.35948 6.99999 1.35948ZM4.12019 9.7423C5.01922 9.23751 6.01304 9.42986 6.46808 9.54971C6.79819 9.63652 7.20181 9.63652 7.53192 9.54971C7.98697 9.42986 8.98079 9.23752 9.87987 9.7423L12.3475 11.1278C13.0498 11.5222 13.5 12.2451 13.5 13.0467V13.7708C13.5 15.0391 12.4101 16 11.1522 16H2.84784C1.58988 16 0.5 15.0391 0.5 13.7708V13.0467C0.5 12.2451 0.950202 11.5222 1.65241 11.1278L4.12019 9.7423ZM6.11485 10.8635C5.72555 10.7609 5.19904 10.6996 4.7983 10.9247L2.33052 12.3103C2.03446 12.4765 1.87398 12.7611 1.87398 13.0467V13.7708C1.87398 14.2141 2.27142 14.6405 2.84784 14.6405H11.1522C11.7286 14.6405 12.126 14.2141 12.126 13.7708V13.0467C12.126 12.7611 11.9655 12.4765 11.6694 12.3103L9.20175 10.9247C8.80095 10.6996 8.27414 10.761 7.88484 10.8636C7.32829 11.0099 6.68766 11.0112 6.12966 10.8673L6.11485 10.8635Z" fill="#8697A8"/>
</svg>
