<svg width="385" height="386" viewBox="0 0 385 386" fill="none" xmlns="http://www.w3.org/2000/svg">
<path fill-rule="evenodd" clip-rule="evenodd" d="M356.199 202.624C356.22 202.26 356.249 201.897 356.267 201.533C356.293 201.033 356.305 200.529 356.328 200.029C356.364 199.155 356.404 198.28 356.427 197.405C356.441 196.899 356.443 196.391 356.452 195.883C356.467 195.025 356.483 194.167 356.484 193.308C356.485 193.191 356.489 193.072 356.489 192.953C356.489 192.457 356.475 191.964 356.471 191.468C356.464 190.743 356.459 190.017 356.443 189.292C356.425 188.513 356.399 187.739 356.368 186.964C356.351 186.435 356.332 185.907 356.308 185.377C356.265 184.421 356.211 183.469 356.149 182.517C356.129 182.195 356.111 181.871 356.088 181.547C356.009 180.409 355.917 179.275 355.817 178.144L355.789 177.811C348.14 94.0546 277.703 28.4212 191.956 28.4212C101.104 28.4212 27.424 102.1 27.424 192.953C27.424 229.985 39.6693 264.163 60.3253 291.663L60.168 292.372L56.216 310.276L54.9347 316.072L47.1347 351.352L81.604 340.513L93.1053 336.897L105.56 332.983C130.672 348.515 160.268 357.485 191.956 357.485C279.563 357.485 351.191 288.976 356.199 202.624V202.624ZM321.772 51.6746C399.772 123.161 405.055 244.391 333.568 322.392C272.035 389.528 173.66 402.776 97.7106 359.581L82.6067 364.341L15.9747 385.333L31.0933 317.129L34.5213 301.668C-15.1167 229.764 -10.4765 130.608 51.0547 63.4706C122.541 -14.5308 243.771 -19.8121 321.772 51.6746Z" fill="white"/>
<path d="M356.199 202.624C356.22 202.26 356.249 201.897 356.267 201.533C356.293 201.033 356.305 200.529 356.328 200.029C356.364 199.155 356.404 198.28 356.427 197.405C356.441 196.899 356.443 196.391 356.452 195.883C356.467 195.025 356.483 194.167 356.484 193.308C356.485 193.191 356.489 193.072 356.489 192.953C356.489 192.457 356.475 191.964 356.471 191.468C356.464 190.743 356.459 190.017 356.443 189.292C356.425 188.513 356.399 187.739 356.368 186.964C356.351 186.435 356.332 185.907 356.308 185.377C356.265 184.421 356.211 183.469 356.149 182.517C356.129 182.195 356.111 181.871 356.088 181.547C356.009 180.409 355.917 179.275 355.817 178.144L355.789 177.811C348.14 94.0546 277.703 28.4212 191.956 28.4212C101.104 28.4212 27.424 102.1 27.424 192.953C27.424 229.985 39.6693 264.163 60.3253 291.663L60.168 292.372L56.216 310.276L54.9347 316.072L47.1347 351.352L81.604 340.513L93.1053 336.897L105.56 332.983C130.672 348.515 160.268 357.485 191.956 357.485C279.563 357.485 351.191 288.976 356.199 202.624V202.624ZM321.772 51.6746C399.772 123.161 405.055 244.391 333.568 322.392C272.035 389.528 173.66 402.776 97.7106 359.581L82.6067 364.341L15.9747 385.333L31.0933 317.129L34.5213 301.668C-15.1167 229.764 -10.4765 130.608 51.0547 63.4706C122.541 -14.5308 243.771 -19.8121 321.772 51.6746Z" stroke="white" stroke-width="0.666667" stroke-miterlimit="2.6131"/>
<path fill-rule="evenodd" clip-rule="evenodd" d="M112.368 114.085C103.723 124.088 100.673 136.759 101.856 150.681C96.7346 206.316 180.743 293.608 235.637 288.304C253.015 289.828 268.543 284.24 279.467 268.628C284.413 258.467 283.281 252.468 281.736 249.397C277.223 240.428 247.509 230.62 237.796 226.665C232.048 224.325 219.124 232.892 215.569 237.633C212.013 242.375 205.84 239.064 205.84 239.064C191.899 232.084 154.912 191.32 149.296 176.727C149.296 176.727 146.596 170.257 151.657 167.172C156.72 164.087 166.492 152.036 164.719 146.085C162.944 140.136 148.752 102.364 148.752 102.364C148.752 102.364 143.916 94.2066 126.969 100.524C126.969 100.524 119.473 104.759 112.368 114.085" fill="white"/>
</svg>
