<svg width="40" height="36" viewBox="0 0 40 36" fill="none" xmlns="http://www.w3.org/2000/svg">
<path fill-rule="evenodd" clip-rule="evenodd" d="M15.4315 1.92344C14.7026 1.92344 14.1117 2.51562 14.1117 3.24612V4.26356C14.1117 4.6569 13.7935 4.97577 13.401 4.97577C13.0085 4.97577 12.6904 4.6569 12.6904 4.26356V3.24612C12.6904 1.72894 13.9176 0.499023 15.4315 0.499023H24.5685C26.0824 0.499023 27.3096 1.72894 27.3096 3.24612V4.77228C27.3096 5.16562 26.9915 5.48449 26.599 5.48449C26.2065 5.48449 25.8883 5.16562 25.8883 4.77228V3.24612C25.8883 2.51562 25.2974 1.92344 24.5685 1.92344H15.4315ZM0 9.35077C0 7.83359 1.22724 6.60367 2.74112 6.60367H37.2589C38.7728 6.60367 40 7.83359 40 9.35077V14.8612C40 16.136 39.1249 17.2433 37.8867 17.5353L23.7563 20.8673V24.1037C23.7563 24.778 23.2109 25.3246 22.5381 25.3246H17.4619C16.7891 25.3246 16.2437 24.778 16.2437 24.1037V20.8673L2.11329 17.5353C0.875087 17.2433 0 16.136 0 14.8612V9.35077ZM16.2437 19.404V19.0165C16.2437 18.3422 16.7891 17.7955 17.4619 17.7955H22.5381C23.2109 17.7955 23.7563 18.3422 23.7563 19.0165V19.404L37.5612 16.1487C38.1573 16.0081 38.5787 15.475 38.5787 14.8612V9.35077C38.5787 8.62027 37.9878 8.02809 37.2589 8.02809H2.74112C2.01221 8.02809 1.42132 8.62027 1.42132 9.35077V14.8612C1.42132 15.475 1.84266 16.0081 2.43883 16.1487L16.2437 19.404ZM17.665 19.22V23.9002H22.335V19.22H17.665ZM1.72589 19.8304C2.11837 19.8304 2.43655 20.1493 2.43655 20.5426V32.7519C2.43655 33.4824 3.02744 34.0746 3.75635 34.0746H36.2437C36.9726 34.0746 37.5634 33.4824 37.5634 32.7519V20.5426C37.5634 20.1493 37.8816 19.8304 38.2741 19.8304C38.6666 19.8304 38.9848 20.1493 38.9848 20.5426V32.7519C38.9848 34.2691 37.7575 35.499 36.2437 35.499H3.75635C2.24247 35.499 1.01523 34.2691 1.01523 32.7519V20.5426C1.01523 20.1493 1.3334 19.8304 1.72589 19.8304Z" fill="#0045FF"/>
</svg>
